<?xml version="1.0" encoding="UTF-8" standalone="no"?>
<!DOCTYPE svg PUBLIC "-//W3C//DTD SVG 1.1//EN" "http://www.w3.org/Graphics/SVG/1.1/DTD/svg11.dtd">
<!-- 由 Microsoft Visio, SVG Export 生成 logo1.svg Page-1 -->
<svg xmlns="http://www.w3.org/2000/svg" xmlns:xlink="http://www.w3.org/1999/xlink" xmlns:ev="http://www.w3.org/2001/xml-events"
		xmlns:v="http://schemas.microsoft.com/visio/2003/SVGExtensions/" width="6.22179in" height="2.58781in"
		viewBox="0 0 447.969 186.322" xml:space="preserve" color-interpolation-filters="sRGB" class="st11">
	<v:documentProperties v:langID="2052" v:metric="true" v:viewMarkup="false">
		<v:userDefs>
			<v:ud v:nameU="msvSubprocessMaster" v:prompt="" v:val="VT4(Box)"/>
			<v:ud v:nameU="msvNoAutoConnect" v:val="VT0(1):26"/>
		</v:userDefs>
	</v:documentProperties>

	<style type="text/css">
	<![CDATA[
		.st1 {fill:#f0c48a;stroke:none;stroke-linecap:butt;stroke-width:0.146484}
		.st2 {fill:#7babf1;stroke:none;stroke-linecap:butt;stroke-width:0.146484}
		.st3 {fill:#a4cff2;stroke:none;stroke-linecap:butt;stroke-width:0.146484}
		.st4 {fill:#d3e6f8;stroke:none;stroke-linecap:butt;stroke-width:0.146484}
		.st5 {fill:#e8677d;stroke:none;stroke-linecap:butt;stroke-width:0.146484}
		.st6 {fill:#fd919e;stroke:none;stroke-linecap:butt;stroke-width:0.146484}
		.st7 {fill:#4c4372;stroke:none;stroke-linecap:butt;stroke-width:0.146484}
		.st8 {fill:none;stroke:none;stroke-linecap:round;stroke-linejoin:round;stroke-width:0.5}
		.st9 {fill:#5b9bd5;font-family:Times New Roman;font-size:3em;font-weight:bold}
		.st10 {font-family:隶书;font-size:1em}
		.st11 {fill:none;fill-rule:evenodd;font-size:12px;overflow:visible;stroke-linecap:square;stroke-miterlimit:3}
	]]>
	</style>

	<g v:mID="0" v:index="1" v:groupContext="foregroundPage">
		<v:userDefs>
			<v:ud v:nameU="msvThemeOrder" v:val="VT0(0):26"/>
		</v:userDefs>
		<title>页-1</title>
		<v:pageProperties v:drawingScale="0.0393701" v:pageScale="0.0393701" v:drawingUnits="24" v:shadowOffsetX="9"
				v:shadowOffsetY="-9"/>
		<g id="group1-1" transform="translate(18.0772,-18.1465)" v:mID="1" v:groupContext="group">
			<title>工作表.1</title>
			<g id="shape2-2" v:mID="2" v:groupContext="shape" transform="translate(10.8398,-14.3555)">
				<title>工作表.2</title>
				<path d="M0 125.68 A60.6445 60.6445 -180 0 0 121.29 125.68 A60.6445 60.6445 -180 1 0 0 125.68 Z" class="st1"/>
			</g>
			<g id="shape3-4" v:mID="3" v:groupContext="shape" transform="translate(1.78711,-1.72852)">
				<title>工作表.3</title>
				<path d="M0 90.4 L0 135.7 L26.63 172.35 L69.7 186.32 L112.76 172.35 L139.39 135.7 L139.39 90.4 L112.76 53.75 L69.7
							 39.78 L26.63 53.75 L0 90.4 Z" class="st2"/>
			</g>
			<g id="shape4-6" v:mID="4" v:groupContext="shape" transform="translate(9.75586,-10.0781)">
				<title>工作表.4</title>
				<path d="M0 101.33 L0 141.47 L23.58 173.93 L61.73 186.32 L99.87 173.93 L123.46 141.47 L123.46 101.33 L99.87 68.87
							 L61.73 56.48 L23.58 68.87 L0 101.33 Z" class="st3"/>
			</g>
			<g id="shape5-8" v:mID="5" v:groupContext="shape" transform="translate(16.7285,-22.9102)">
				<title>工作表.5</title>
				<path d="M71.69 82.14 L37.82 82.14 L10.46 102.04 L0 134.23 L10.46 166.43 L37.82 186.32 L71.69 186.32 L99.05 166.43
							 L109.51 134.23 L99.05 102.04 L71.69 82.14 Z" class="st4"/>
			</g>
			<g id="shape6-10" v:mID="6" v:groupContext="shape" transform="translate(37.2363,-43.2129)">
				<title>工作表.6</title>
				<path d="M34.25 121.17 L0 146.04 L13.07 186.32 L55.43 186.32 L68.5 146.04 L34.25 121.17 Z" class="st5"/>
			</g>
			<g id="shape7-12" v:mID="7" v:groupContext="shape" transform="translate(47.9297,-52.3242)">
				<title>工作表.7</title>
				<path d="M23.55 141.53 L0 158.64 L8.99 186.32 L38.12 186.32 L47.11 158.64 L23.55 141.53 Z" class="st6"/>
			</g>
			<g id="shape8-14" v:mID="8" v:groupContext="shape" transform="translate(0.0878906,0)">
				<title>工作表.8</title>
				<path d="M71.4 186.32 C71.22 186.32 71.04 186.29 70.87 186.23 L27.8 172.23 C27.45 172.11 27.16 171.91 26.95 171.62
							 L0.32 134.96 C0.12 134.67 0 134.32 0 133.97 L0 88.68 C0 88.32 0.12 87.97 0.32 87.68 L26.95 51.03 C27.16
							 50.74 27.48 50.53 27.8 50.41 L70.87 36.41 C71.22 36.29 71.57 36.29 71.92 36.41 L114.99 50.41 C115.34
							 50.53 115.63 50.74 115.84 51.03 L142.47 87.68 C142.68 87.97 142.79 88.32 142.79 88.68 L142.79 133.97
							 C142.79 134.32 142.68 134.67 142.47 134.96 L115.84 171.62 C115.63 171.91 115.31 172.11 114.99 172.23
							 L71.92 186.23 C71.75 186.29 71.57 186.32 71.4 186.32 ZM29.38 169.15 L71.4 182.81 L113.41 169.15 L139.37
							 133.41 L139.37 89.23 L113.41 53.49 L71.4 39.84 L29.38 53.49 L3.43 89.23 L3.43 133.41 L29.38 169.15 Z"
						class="st7"/>
			</g>
			<g id="shape9-16" v:mID="9" v:groupContext="shape" transform="translate(14.9707,-21.2109)">
				<title>工作表.9</title>
				<path d="M73.45 186.32 L39.58 186.32 C39.23 186.32 38.88 186.21 38.58 186 L11.19 166.11 C10.9 165.9 10.69 165.58
							 10.58 165.26 L0.12 133.06 C0 132.71 0 132.36 0.12 132.01 L10.58 99.81 C10.69 99.46 10.9 99.16 11.19
							 98.96 L38.58 79.07 C38.88 78.86 39.23 78.74 39.58 78.74 L73.42 78.74 C73.77 78.74 74.12 78.86 74.41
							 79.07 L101.81 98.96 C102.1 99.16 102.3 99.49 102.42 99.81 L112.88 132.01 C113 132.36 113 132.71 112.88
							 133.06 L102.42 165.26 C102.3 165.61 102.1 165.9 101.81 166.11 L74.41 186 C74.15 186.23 73.8 186.32 73.45
							 186.32 ZM40.14 182.89 L72.86 182.89 L99.35 163.65 L109.48 132.53 L99.38 101.39 L72.89 82.14 L40.14 82.14
							 L13.65 101.39 L3.54 132.53 L13.65 163.68 L40.14 182.89 Z" class="st7"/>
			</g>
			<g id="shape10-18" v:mID="10" v:groupContext="shape" transform="translate(35.332,-41.5137)">
				<title>工作表.10</title>
				<path d="M57.33 186.32 L14.97 186.32 C14.24 186.32 13.56 185.85 13.33 185.12 L0.23 144.87 C0 144.16 0.26 143.37 0.85
							 142.93 L35.1 118.06 C35.71 117.62 36.5 117.62 37.12 118.06 L71.37 142.93 C71.98 143.37 72.22 144.13
							 71.98 144.87 L58.89 185.12 C58.74 185.85 58.07 186.32 57.33 186.32 ZM16.23 182.89 L56.07 182.89 L68.38
							 145.01 L36.15 121.61 L3.93 145.01 L16.23 182.89 Z" class="st7"/>
			</g>
			<g id="shape11-20" v:mID="11" v:groupContext="shape">
				<title>工作表.11</title>
				<path d="M71.48 186.32 C70.96 186.32 70.46 186.09 70.14 185.68 L53.91 165.38 L28.86 172.26 C28.36 172.41 27.8 172.29
							 27.39 172 C26.98 171.7 26.72 171.21 26.69 170.68 L25.52 144.72 L1.2 135.58 C0.7 135.4 0.32 134.99 0.18
							 134.5 C0 134 0.09 133.44 0.38 133.03 L14.65 111.32 L0.35 89.61 C0.06 89.17 0 88.65 0.15 88.15 C0.32
							 87.65 0.67 87.27 1.17 87.06 L25.49 77.92 L26.66 51.97 C26.69 51.44 26.95 50.97 27.36 50.65 C27.77 50.36
							 28.33 50.24 28.83 50.38 L53.88 57.3 L70.11 37 C70.43 36.59 70.93 36.35 71.46 36.35 C71.98 36.35 72.48
							 36.59 72.8 37 L89.03 57.3 L114.11 50.38 C114.61 50.24 115.17 50.36 115.58 50.65 C115.99 50.94 116.25
							 51.44 116.28 51.97 L117.45 77.92 L141.77 87.06 C142.27 87.24 142.65 87.65 142.79 88.15 C142.97 88.65
							 142.88 89.17 142.59 89.61 L128.32 111.32 L142.62 133.03 C142.91 133.47 142.97 134 142.82 134.5 C142.65
							 134.99 142.29 135.38 141.8 135.58 L117.48 144.72 L116.31 170.68 C116.28 171.21 116.02 171.67 115.61
							 172 C115.2 172.29 114.64 172.41 114.14 172.26 L89.09 165.35 L72.86 185.65 C72.51 186.09 72.01 186.32
							 71.48 186.32 ZM54.55 161.68 C55.08 161.68 55.58 161.92 55.9 162.33 L71.48 181.84 L87.07 162.33 C87.51
							 161.8 88.21 161.57 88.86 161.74 L112.94 168.36 L114.08 143.4 C114.11 142.73 114.55 142.11 115.2 141.88
							 L138.57 133.09 L124.8 112.26 C124.42 111.67 124.42 110.94 124.8 110.36 L138.54 89.5 L115.17 80.71 C114.52
							 80.47 114.08 79.86 114.05 79.18 L112.91 54.22 L88.83 60.84 C88.15 61.02 87.45 60.79 87.04 60.26 L71.48
							 40.8 L55.9 60.32 C55.46 60.84 54.76 61.08 54.11 60.9 L30.03 54.28 L28.89 79.24 C28.86 79.92 28.42 80.53
							 27.77 80.77 L4.39 89.55 L18.16 110.38 C18.54 110.97 18.54 111.7 18.16 112.29 L4.39 133.12 L27.77 141.91
							 C28.42 142.14 28.86 142.76 28.89 143.43 L30.03 168.39 L54.11 161.77 C54.26 161.71 54.4 161.68 54.55
							 161.68 Z" class="st7"/>
			</g>
			<g id="shape12-22" v:mID="12" v:groupContext="shape" transform="translate(14.7949,-21.2109)">
				<title>工作表.12</title>
				<path d="M56.69 100.86 C56.19 100.86 55.75 100.66 55.43 100.31 L38.5 81.59 C37.85 80.88 37.91 79.8 38.61 79.15 C39.32
							 78.51 40.4 78.57 41.04 79.27 L56.69 96.56 L72.33 79.27 C72.98 78.57 74.06 78.51 74.77 79.15 C75.47 79.8
							 75.53 80.88 74.88 81.59 L57.95 100.31 C57.63 100.66 57.19 100.86 56.69 100.86 ZM111.45 134.26 C111.24
							 134.26 111.01 134.23 110.8 134.14 L90.29 125.65 C89.88 125.47 89.53 125.15 89.36 124.71 C89.18 124.3
							 89.18 123.8 89.36 123.39 L99.4 99.69 C99.79 98.81 100.78 98.4 101.66 98.78 C102.54 99.16 102.95 100.16
							 102.57 101.04 L93.19 123.13 L112.09 130.95 C112.97 131.3 113.38 132.33 113.03 133.21 C112.76 133.85
							 112.12 134.26 111.45 134.26 ZM73.62 186.32 C73.51 186.32 73.39 186.32 73.27 186.29 C72.33 186.09 71.75
							 185.18 71.95 184.27 L76.2 163.97 C76.38 163.15 77.08 162.59 77.9 162.59 L101.04 163 C101.98 163.03 102.74
							 163.79 102.74 164.76 C102.71 165.7 101.95 166.46 100.99 166.46 L79.28 166.08 L75.29 184.97 C75.12 185.77
							 74.41 186.32 73.62 186.32 ZM39.76 186.32 C38.96 186.32 38.23 185.77 38.09 184.95 L34.13 166.05 L12.42
							 166.43 C11.46 166.43 10.69 165.7 10.66 164.73 C10.63 163.79 11.4 163 12.36 162.97 L35.51 162.56 C36.33
							 162.56 37.06 163.12 37.21 163.94 L41.46 184.24 C41.66 185.18 41.04 186.09 40.14 186.26 C39.99 186.32
							 39.87 186.32 39.76 186.32 ZM1.93 134.26 C1.26 134.26 0.62 133.85 0.35 133.21 C0 132.33 0.41 131.33 1.29
							 130.95 L20.19 123.13 L10.81 101.04 C10.43 100.16 10.84 99.16 11.72 98.78 C12.6 98.4 13.59 98.81 13.97
							 99.69 L24.02 123.39 C24.2 123.8 24.2 124.3 24.02 124.71 C23.85 125.12 23.53 125.47 23.09 125.65 L2.58
							 134.14 C2.37 134.2 2.14 134.26 1.93 134.26 Z" class="st7"/>
			</g>
			<g id="shape13-24" v:mID="13" v:groupContext="shape" transform="translate(20.0098,-21.2109)">
				<title>工作表.13</title>
				<path d="M51.47 186.32 C51.04 186.32 50.63 186.18 50.27 185.85 L29.27 165.7 L0.94 149.64 C0.53 149.41 0.23 149.03
							 0.12 148.56 C0 148.09 0.09 147.62 0.35 147.21 L15.56 123.45 L19.01 90.32 C19.07 89.82 19.34 89.35 19.75
							 89.09 C20.16 88.79 20.68 88.71 21.18 88.85 L51.5 97.38 L83.41 89.96 C83.91 89.85 84.43 89.96 84.81 90.26
							 C85.22 90.55 85.46 91.02 85.49 91.55 L87.36 123.54 L101.89 149.5 C102.13 149.91 102.19 150.4 102.04
							 150.84 C101.89 151.28 101.6 151.66 101.16 151.87 L73.59 165.73 L52.68 185.85 C52.32 186.18 51.91 186.32
							 51.47 186.32 ZM4.22 147.56 L31.17 162.83 C31.29 162.88 31.41 162.97 31.52 163.09 L51.5 182.25 L71.48
							 163.09 C71.6 162.97 71.75 162.88 71.89 162.8 L98.09 149.64 L84.23 124.92 C84.11 124.68 84.02 124.45
							 84.02 124.18 L82.24 93.77 L51.88 100.8 C51.59 100.86 51.3 100.86 51.04 100.78 L22.21 92.69 L18.93 124.21
							 C18.9 124.48 18.81 124.74 18.66 124.97 L4.22 147.56 Z" class="st7"/>
			</g>
			<g id="shape14-26" v:mID="14" v:groupContext="shape" transform="translate(35.332,-71.3672)">
				<title>工作表.14</title>
				<path d="M36.15 186.32 C35.98 186.32 35.83 186.29 35.65 186.23 L1.41 175.83 C0.5 175.57 0 174.6 0.26 173.7 C0.53
							 172.79 1.49 172.29 2.4 172.55 L34.45 182.28 L34.45 149.32 C34.45 148.38 35.21 147.59 36.18 147.59 C37.12
							 147.59 37.91 148.35 37.91 149.32 L37.91 184.59 C37.91 185.15 37.65 185.65 37.21 185.97 C36.88 186.21
							 36.5 186.32 36.15 186.32 Z" class="st7"/>
			</g>
			<g id="shape15-28" v:mID="15" v:groupContext="shape" transform="translate(48.3398,-41.25)">
				<title>工作表.15</title>
				<path d="M44.33 186.06 C43.8 186.06 43.27 185.79 42.92 185.33 L23.14 157.46 L3.37 185.36 C2.81 186.12 1.76 186.32
							 0.97 185.77 C0.21 185.21 0 184.15 0.56 183.36 L21.74 153.51 C22.06 153.04 22.59 152.78 23.14 152.78
							 C23.7 152.78 24.23 153.04 24.55 153.51 L45.7 183.36 C46.26 184.13 46.05 185.21 45.29 185.77 C45 185.97
							 44.65 186.06 44.33 186.06 Z" class="st7"/>
			</g>
			<g id="shape16-30" v:mID="16" v:groupContext="shape" transform="translate(69.5801,-71.3672)">
				<title>工作表.16</title>
				<path d="M1.9 186.32 C1.17 186.32 0.5 185.85 0.26 185.09 C0 184.18 0.5 183.22 1.41 182.95 L35.65 172.55 C36.56 172.29
							 37.53 172.79 37.79 173.7 C38.06 174.6 37.56 175.57 36.65 175.83 L2.4 186.23 C2.23 186.29 2.08 186.32
							 1.9 186.32 Z" class="st7"/>
			</g>
		</g>
		<g id="shape17-32" v:mID="17" v:groupContext="shape" transform="translate(165.298,-45.1651)">
			<title>工作表.17</title>
			<desc>GuoFeng Zhong 钟国锋</desc>
			<v:textBlock v:margins="rect(4,4,4,4)" v:tabSpace="42.5197"/>
			<v:textRect cx="132.211" cy="138.326" width="264.43" height="95.9921"/>
			<rect x="0" y="90.3301" width="264.421" height="95.9921" class="st8"/>
			<text x="4" y="122.1" class="st9" v:langID="2052"><v:paragraph v:spLine="-1.5"/><v:tabList/>GuoFeng Zhong<v:newlineChar/><tspan
						x="4" dy="1.614em" class="st10">钟国锋</tspan></text>		</g>
	</g>
</svg>
