<?xml version="1.0" encoding="UTF-8" standalone="no"?>
<!DOCTYPE svg PUBLIC "-//W3C//DTD SVG 1.1//EN" "http://www.w3.org/Graphics/SVG/1.1/DTD/svg11.dtd">
<!-- 由 Microsoft Visio, SVG Export 生成 logo1.svg Page-1 -->
<svg xmlns="http://www.w3.org/2000/svg" xmlns:xlink="http://www.w3.org/1999/xlink" xmlns:ev="http://www.w3.org/2001/xml-events"
		xmlns:v="http://schemas.microsoft.com/visio/2003/SVGExtensions/" width="9.47841in" height="2.66666in"
		viewBox="0 0 682.446 192" xml:space="preserve" color-interpolation-filters="sRGB" class="st11">
	<v:documentProperties v:langID="2052" v:metric="true" v:viewMarkup="false">
		<v:userDefs>
			<v:ud v:nameU="msvSubprocessMaster" v:prompt="" v:val="VT4(Box)"/>
			<v:ud v:nameU="msvNoAutoConnect" v:val="VT0(1):26"/>
		</v:userDefs>
	</v:documentProperties>

	<style type="text/css">
	<![CDATA[
		.st1 {fill:#f0c48a;stroke:none;stroke-linecap:butt;stroke-width:0.146484}
		.st2 {fill:#7babf1;stroke:none;stroke-linecap:butt;stroke-width:0.146484}
		.st3 {fill:#a4cff2;stroke:none;stroke-linecap:butt;stroke-width:0.146484}
		.st4 {fill:#d3e6f8;stroke:none;stroke-linecap:butt;stroke-width:0.146484}
		.st5 {fill:#e8677d;stroke:none;stroke-linecap:butt;stroke-width:0.146484}
		.st6 {fill:#fd919e;stroke:none;stroke-linecap:butt;stroke-width:0.146484}
		.st7 {fill:#4c4372;stroke:none;stroke-linecap:butt;stroke-width:0.146484}
		.st8 {fill:none;stroke:none;stroke-linecap:round;stroke-linejoin:round;stroke-width:0.5}
		.st9 {fill:#5b9bd5;font-family:微软雅黑;font-size:4.99999em}
		.st10 {font-size:1em}
		.st11 {fill:none;fill-rule:evenodd;font-size:12px;overflow:visible;stroke-linecap:square;stroke-miterlimit:3}
	]]>
	</style>

	<g v:mID="0" v:index="1" v:groupContext="foregroundPage">
		<v:userDefs>
			<v:ud v:nameU="msvThemeOrder" v:val="VT0(0):26"/>
		</v:userDefs>
		<title>页-1</title>
		<v:pageProperties v:drawingScale="0.0393701" v:pageScale="0.0393701" v:drawingUnits="24" v:shadowOffsetX="9"
				v:shadowOffsetY="-9"/>
		<g id="group3-1" transform="translate(18.076,-20.9849)" v:mID="3" v:groupContext="group">
			<title>工作表.1</title>
			<g id="shape4-2" v:mID="4" v:groupContext="shape" transform="translate(10.8398,-14.3505)">
				<title>工作表.2</title>
				<path d="M0 131.35 A60.645 60.645 -180 1 0 121.29 131.35 A60.645 60.645 -180 1 0 -0 131.35 Z" class="st1"/>
			</g>
			<g id="shape5-4" v:mID="5" v:groupContext="shape" transform="translate(1.78711,-1.72852)">
				<title>工作表.3</title>
				<path d="M0 96.08 L0 141.38 L26.63 178.03 L69.7 192 L112.76 178.03 L139.39 141.38 L139.39 96.08 L112.76 59.43 L69.7
							 45.46 L26.63 59.43 L0 96.08 Z" class="st2"/>
			</g>
			<g id="shape6-6" v:mID="6" v:groupContext="shape" transform="translate(9.75586,-10.0781)">
				<title>工作表.4</title>
				<path d="M0 107.01 L0 147.15 L23.58 179.61 L61.73 192 L99.87 179.61 L123.46 147.15 L123.46 107.01 L99.87 74.55 L61.73
							 62.16 L23.58 74.55 L0 107.01 Z" class="st3"/>
			</g>
			<g id="shape7-8" v:mID="7" v:groupContext="shape" transform="translate(16.7285,-22.9102)">
				<title>工作表.5</title>
				<path d="M71.69 87.82 L37.82 87.82 L10.46 107.72 L0 139.91 L10.46 172.11 L37.82 192 L71.69 192 L99.05 172.11 L109.51
							 139.91 L99.05 107.72 L71.69 87.82 Z" class="st4"/>
			</g>
			<g id="shape8-10" v:mID="8" v:groupContext="shape" transform="translate(37.2363,-43.2129)">
				<title>工作表.6</title>
				<path d="M34.25 126.85 L0 151.72 L13.07 192 L55.43 192 L68.5 151.72 L34.25 126.85 Z" class="st5"/>
			</g>
			<g id="shape9-12" v:mID="9" v:groupContext="shape" transform="translate(47.9297,-52.3242)">
				<title>工作表.7</title>
				<path d="M23.55 147.21 L0 164.32 L8.99 192 L38.12 192 L47.11 164.32 L23.55 147.21 Z" class="st6"/>
			</g>
			<g id="shape10-14" v:mID="10" v:groupContext="shape" transform="translate(0.0878906,-8.52651E-14)">
				<title>工作表.8</title>
				<path d="M71.4 192 C71.22 192 71.04 191.97 70.87 191.91 L27.8 177.91 C27.45 177.79 27.16 177.59 26.95 177.3 L0.32
							 140.64 C0.12 140.35 0 140 0 139.65 L0 94.36 C0 94 0.12 93.65 0.32 93.36 L26.95 56.71 C27.16 56.42 27.48
							 56.21 27.8 56.09 L70.87 42.09 C71.22 41.97 71.57 41.97 71.92 42.09 L114.99 56.09 C115.34 56.21 115.63
							 56.42 115.84 56.71 L142.47 93.36 C142.68 93.65 142.79 94 142.79 94.36 L142.79 139.65 C142.79 140 142.68
							 140.35 142.47 140.64 L115.84 177.3 C115.63 177.59 115.31 177.79 114.99 177.91 L71.92 191.91 C71.75 191.97
							 71.57 192 71.4 192 ZM29.38 174.83 L71.4 188.49 L113.41 174.83 L139.37 139.09 L139.37 94.91 L113.41 59.17
							 L71.4 45.52 L29.38 59.17 L3.43 94.91 L3.43 139.09 L29.38 174.83 Z" class="st7"/>
			</g>
			<g id="shape11-16" v:mID="11" v:groupContext="shape" transform="translate(14.9707,-21.2109)">
				<title>工作表.9</title>
				<path d="M73.45 192 L39.58 192 C39.23 192 38.88 191.89 38.58 191.68 L11.19 171.79 C10.9 171.58 10.69 171.26 10.58
							 170.94 L0.12 138.74 C0 138.39 0 138.04 0.12 137.69 L10.58 105.49 C10.69 105.14 10.9 104.84 11.19 104.64
							 L38.58 84.75 C38.88 84.54 39.23 84.42 39.58 84.42 L73.42 84.42 C73.77 84.42 74.12 84.54 74.41 84.75
							 L101.81 104.64 C102.1 104.84 102.3 105.17 102.42 105.49 L112.88 137.69 C113 138.04 113 138.39 112.88
							 138.74 L102.42 170.94 C102.3 171.29 102.1 171.58 101.81 171.79 L74.41 191.68 C74.15 191.91 73.8 192
							 73.45 192 ZM40.14 188.57 L72.86 188.57 L99.35 169.33 L109.48 138.21 L99.38 107.07 L72.89 87.82 L40.14
							 87.82 L13.65 107.07 L3.54 138.21 L13.65 169.36 L40.14 188.57 Z" class="st7"/>
			</g>
			<g id="shape12-18" v:mID="12" v:groupContext="shape" transform="translate(35.332,-41.5137)">
				<title>工作表.10</title>
				<path d="M57.33 192 L14.97 192 C14.24 192 13.56 191.53 13.33 190.8 L0.23 150.55 C0 149.84 0.26 149.05 0.85 148.61
							 L35.1 123.74 C35.71 123.3 36.5 123.3 37.12 123.74 L71.37 148.61 C71.98 149.05 72.22 149.81 71.98 150.55
							 L58.89 190.8 C58.74 191.53 58.07 192 57.33 192 ZM16.23 188.57 L56.07 188.57 L68.38 150.69 L36.15 127.29
							 L3.93 150.69 L16.23 188.57 Z" class="st7"/>
			</g>
			<g id="shape13-20" v:mID="13" v:groupContext="shape">
				<title>工作表.11</title>
				<path d="M71.48 192 C70.96 192 70.46 191.77 70.14 191.36 L53.91 171.06 L28.86 177.94 C28.36 178.09 27.8 177.97 27.39
							 177.68 C26.98 177.38 26.72 176.89 26.69 176.36 L25.52 150.4 L1.2 141.26 C0.7 141.08 0.32 140.67 0.18
							 140.18 C0 139.68 0.09 139.12 0.38 138.71 L14.65 117 L0.35 95.29 C0.06 94.85 0 94.33 0.15 93.83 C0.32
							 93.33 0.67 92.95 1.17 92.74 L25.49 83.6 L26.66 57.65 C26.69 57.12 26.95 56.65 27.36 56.33 C27.77 56.04
							 28.33 55.92 28.83 56.06 L53.88 62.98 L70.11 42.68 C70.43 42.27 70.93 42.03 71.46 42.03 C71.98 42.03
							 72.48 42.27 72.8 42.68 L89.03 62.98 L114.11 56.06 C114.61 55.92 115.17 56.04 115.58 56.33 C115.99 56.62
							 116.25 57.12 116.28 57.65 L117.45 83.6 L141.77 92.74 C142.27 92.92 142.65 93.33 142.79 93.83 C142.97
							 94.33 142.88 94.85 142.59 95.29 L128.32 117 L142.62 138.71 C142.91 139.15 142.97 139.68 142.82 140.18
							 C142.65 140.67 142.29 141.06 141.8 141.26 L117.48 150.4 L116.31 176.36 C116.28 176.89 116.02 177.35
							 115.61 177.68 C115.2 177.97 114.64 178.09 114.14 177.94 L89.09 171.03 L72.86 191.33 C72.51 191.77 72.01
							 192 71.48 192 ZM54.55 167.36 C55.08 167.36 55.58 167.6 55.9 168.01 L71.48 187.52 L87.07 168.01 C87.51
							 167.48 88.21 167.25 88.86 167.42 L112.94 174.04 L114.08 149.08 C114.11 148.41 114.55 147.79 115.2 147.56
							 L138.57 138.77 L124.8 117.94 C124.42 117.35 124.42 116.62 124.8 116.04 L138.54 95.18 L115.17 86.39 C114.52
							 86.15 114.08 85.54 114.05 84.86 L112.91 59.9 L88.83 66.52 C88.15 66.7 87.45 66.47 87.04 65.94 L71.48
							 46.48 L55.9 66 C55.46 66.52 54.76 66.76 54.11 66.58 L30.03 59.96 L28.89 84.92 C28.86 85.6 28.42 86.21
							 27.77 86.45 L4.39 95.23 L18.16 116.06 C18.54 116.65 18.54 117.38 18.16 117.97 L4.39 138.8 L27.77 147.59
							 C28.42 147.82 28.86 148.44 28.89 149.11 L30.03 174.07 L54.11 167.45 C54.26 167.39 54.4 167.36 54.55
							 167.36 Z" class="st7"/>
			</g>
			<g id="shape14-22" v:mID="14" v:groupContext="shape" transform="translate(14.7949,-21.2109)">
				<title>工作表.12</title>
				<path d="M56.69 106.54 C56.19 106.54 55.75 106.34 55.43 105.99 L38.5 87.27 C37.85 86.56 37.91 85.48 38.61 84.83 C39.32
							 84.19 40.4 84.25 41.04 84.95 L56.69 102.24 L72.33 84.95 C72.98 84.25 74.06 84.19 74.77 84.83 C75.47
							 85.48 75.53 86.56 74.88 87.27 L57.95 105.99 C57.63 106.34 57.19 106.54 56.69 106.54 ZM111.45 139.94
							 C111.24 139.94 111.01 139.91 110.8 139.82 L90.29 131.33 C89.88 131.15 89.53 130.83 89.36 130.39 C89.18
							 129.98 89.18 129.48 89.36 129.07 L99.4 105.37 C99.79 104.49 100.78 104.08 101.66 104.46 C102.54 104.84
							 102.95 105.84 102.57 106.72 L93.19 128.81 L112.09 136.63 C112.97 136.98 113.38 138.01 113.03 138.89
							 C112.76 139.53 112.12 139.94 111.45 139.94 ZM73.62 192 C73.51 192 73.39 192 73.27 191.97 C72.33 191.77
							 71.75 190.86 71.95 189.95 L76.2 169.65 C76.38 168.83 77.08 168.27 77.9 168.27 L101.04 168.68 C101.98
							 168.71 102.74 169.47 102.74 170.44 C102.71 171.38 101.95 172.14 100.99 172.14 L79.28 171.76 L75.29 190.65
							 C75.12 191.45 74.41 192 73.62 192 ZM39.76 192 C38.96 192 38.23 191.45 38.09 190.63 L34.13 171.73 L12.42
							 172.11 C11.46 172.11 10.69 171.38 10.66 170.41 C10.63 169.47 11.4 168.68 12.36 168.65 L35.51 168.24
							 C36.33 168.24 37.06 168.8 37.21 169.62 L41.46 189.92 C41.66 190.86 41.04 191.77 40.14 191.94 C39.99
							 192 39.87 192 39.76 192 ZM1.93 139.94 C1.26 139.94 0.62 139.53 0.35 138.89 C0 138.01 0.41 137.01 1.29
							 136.63 L20.19 128.81 L10.81 106.72 C10.43 105.84 10.84 104.84 11.72 104.46 C12.6 104.08 13.59 104.49
							 13.97 105.37 L24.02 129.07 C24.2 129.48 24.2 129.98 24.02 130.39 C23.85 130.8 23.53 131.15 23.09 131.33
							 L2.58 139.82 C2.37 139.88 2.14 139.94 1.93 139.94 Z" class="st7"/>
			</g>
			<g id="shape15-24" v:mID="15" v:groupContext="shape" transform="translate(20.0098,-21.2109)">
				<title>工作表.13</title>
				<path d="M51.47 192 C51.04 192 50.63 191.86 50.27 191.53 L29.27 171.38 L0.94 155.32 C0.53 155.09 0.23 154.71 0.12
							 154.24 C0 153.77 0.09 153.3 0.35 152.89 L15.56 129.13 L19.01 96 C19.07 95.5 19.34 95.03 19.75 94.77
							 C20.16 94.47 20.68 94.39 21.18 94.53 L51.5 103.06 L83.41 95.64 C83.91 95.53 84.43 95.64 84.81 95.94
							 C85.22 96.23 85.46 96.7 85.49 97.23 L87.36 129.22 L101.89 155.18 C102.13 155.59 102.19 156.08 102.04
							 156.52 C101.89 156.96 101.6 157.34 101.16 157.55 L73.59 171.41 L52.68 191.53 C52.32 191.86 51.91 192
							 51.47 192 ZM4.22 153.24 L31.17 168.51 C31.29 168.56 31.41 168.65 31.52 168.77 L51.5 187.93 L71.48 168.77
							 C71.6 168.65 71.75 168.56 71.89 168.48 L98.09 155.32 L84.23 130.6 C84.11 130.36 84.02 130.13 84.02 129.86
							 L82.24 99.45 L51.88 106.48 C51.59 106.54 51.3 106.54 51.04 106.46 L22.21 98.37 L18.93 129.89 C18.9 130.16
							 18.81 130.42 18.66 130.65 L4.22 153.24 Z" class="st7"/>
			</g>
			<g id="shape16-26" v:mID="16" v:groupContext="shape" transform="translate(35.332,-71.3672)">
				<title>工作表.14</title>
				<path d="M36.15 192 C35.98 192 35.83 191.97 35.65 191.91 L1.41 181.51 C0.5 181.25 0 180.28 0.26 179.38 C0.53 178.47
							 1.49 177.97 2.4 178.23 L34.45 187.96 L34.45 155 C34.45 154.06 35.21 153.27 36.18 153.27 C37.12 153.27
							 37.91 154.03 37.91 155 L37.91 190.27 C37.91 190.83 37.65 191.33 37.21 191.65 C36.88 191.89 36.5 192
							 36.15 192 Z" class="st7"/>
			</g>
			<g id="shape17-28" v:mID="17" v:groupContext="shape" transform="translate(48.3398,-41.25)">
				<title>工作表.15</title>
				<path d="M44.33 191.74 C43.8 191.74 43.27 191.47 42.92 191.01 L23.14 163.14 L3.37 191.04 C2.81 191.8 1.76 192 0.97
							 191.45 C0.21 190.89 0 189.83 0.56 189.04 L21.74 159.19 C22.06 158.72 22.59 158.46 23.14 158.46 C23.7
							 158.46 24.23 158.72 24.55 159.19 L45.7 189.04 C46.26 189.81 46.05 190.89 45.29 191.45 C45 191.65 44.65
							 191.74 44.33 191.74 Z" class="st7"/>
			</g>
			<g id="shape18-30" v:mID="18" v:groupContext="shape" transform="translate(69.5801,-71.3672)">
				<title>工作表.16</title>
				<path d="M1.9 192 C1.17 192 0.5 191.53 0.26 190.77 C0 189.86 0.5 188.9 1.41 188.63 L35.65 178.23 C36.56 177.97 37.53
							 178.47 37.79 179.38 C38.06 180.28 37.56 181.25 36.65 181.51 L2.4 191.91 C2.23 191.97 2.08 192 1.9 192
							 Z" class="st7"/>
			</g>
		</g>
		<g id="shape20-32" v:mID="20" v:groupContext="shape" transform="translate(182.306,-20.9849)">
			<title>工作表.20</title>
			<desc>GuoFeng Zhong 钟国锋</desc>
			<v:textBlock v:margins="rect(4,4,4,4)" v:tabSpace="42.5197"/>
			<v:textRect cx="240.945" cy="116.985" width="481.89" height="150.03"/>
			<rect x="0" y="41.9696" width="481.89" height="150.03" class="st8"/>
			<text x="4" y="97.48" class="st9" v:langID="2052"><v:paragraph v:spLine="-1.3"/><v:tabList/>GuoFeng Zhong<v:newlineChar/><tspan
						x="4" dy="1.3em" class="st10">钟国锋</tspan></text>		</g>
	</g>
</svg>
